<svg width="267" height="208" viewBox="0 0 267 208" fill="none" xmlns="http://www.w3.org/2000/svg">
<rect x="0.242188" width="266" height="208" rx="12" fill="#FFBB1C"/>
<path d="M99.1484 91.5H110.398V69H99.1484V91.5ZM104.773 73.2188V80.25H108.992L104.773 87.2812V80.25H100.555L104.773 73.2188Z" fill="#2A3334"/>
<path d="M106.18 101.344H103.367V104.156H106.18V101.344Z" fill="#2A3334"/>
<path d="M113.211 64.7812H96.3359C95.963 64.7812 95.6053 64.9294 95.3416 65.1931C95.0778 65.4569 94.9297 65.8145 94.9297 66.1875V97.125C94.9297 97.498 95.0778 97.8556 95.3416 98.1194C95.6053 98.3831 95.963 98.5312 96.3359 98.5312H113.211C113.584 98.5312 113.942 98.3831 114.205 98.1194C114.469 97.8556 114.617 97.498 114.617 97.125V66.1875C114.617 65.8145 114.469 65.4569 114.205 65.1931C113.942 64.9294 113.584 64.7812 113.211 64.7812ZM113.211 92.9062C113.211 93.2792 113.063 93.6369 112.799 93.9006C112.535 94.1643 112.178 94.3125 111.805 94.3125H97.7422C97.3692 94.3125 97.0115 94.1643 96.7478 93.9006C96.4841 93.6369 96.3359 93.2792 96.3359 92.9062V67.5938C96.3359 67.2208 96.4841 66.8631 96.7478 66.5994C97.0115 66.3357 97.3692 66.1875 97.7422 66.1875H111.805C112.178 66.1875 112.535 66.3357 112.799 66.5994C113.063 66.8631 113.211 67.2208 113.211 67.5938V92.9062ZM66.8047 83.0625V66.1875C66.8047 65.8145 66.6565 65.4569 66.3928 65.1931C66.1291 64.9294 65.7714 64.7812 65.3984 64.7812H37.2734C36.9005 64.7812 36.5428 64.9294 36.2791 65.1931C36.0153 65.4569 35.8672 65.8145 35.8672 66.1875V83.0625C35.8672 83.4355 36.0153 83.7931 36.2791 84.0569C36.5428 84.3206 36.9005 84.4688 37.2734 84.4688H65.3984C65.7714 84.4688 66.1291 84.3206 66.3928 84.0569C66.6565 83.7931 66.8047 83.4355 66.8047 83.0625ZM51.3359 81.6562V74.625H47.1172L51.3359 67.5938V74.625H55.5547L51.3359 81.6562Z" fill="#2A3334"/>
<path d="M52.7422 87.2812H49.9297V88.6875H52.7422V87.2812Z" fill="#2A3334"/>
<path d="M88.3344 39.4688H102.144L101.539 35.25H87.8281L88.3344 39.4688Z" fill="#2A3334"/>
<path d="M85.0016 35.25H65.4828L64.9906 39.4688H85.4938L85.0016 35.25Z" fill="#2A3334"/>
<path d="M89.15 46.5H103.156L102.552 42.2812H88.6578L89.15 46.5Z" fill="#2A3334"/>
<path d="M101.145 32.4375L100.738 29.625H87.1813L87.5047 32.4375H101.145Z" fill="#2A3334"/>
<path d="M84.3406 29.625H66.1438L65.8063 32.4375H84.6781L84.3406 29.625Z" fill="#2A3334"/>
<path d="M61.8266 42.2812H47.9328L47.3281 46.5H61.3344L61.8266 42.2812Z" fill="#2A3334"/>
<path d="M62.6562 35.25H48.9453L48.3406 39.4688H62.15L62.6562 35.25Z" fill="#2A3334"/>
<path d="M63.3031 29.625H49.7469L49.3391 32.4375H62.9797L63.3031 29.625Z" fill="#2A3334"/>
<path d="M85.8312 42.2812H64.6531L64.1609 46.5H86.3234L85.8312 42.2812Z" fill="#2A3334"/>
<path d="M78.0547 49.3125H72.4297V52.125H78.0547V49.3125Z" fill="#2A3334"/>
<path d="M90.7109 101.344L85.0859 97.125V99.9375H82.2734V91.5H79.4609V101.344C79.4609 101.717 79.6091 102.074 79.8728 102.338C80.1365 102.602 80.4942 102.75 80.8672 102.75H85.0859V105.562L90.7109 101.344ZM59.7734 101.344L65.3984 105.562V102.75H69.6172C69.9901 102.75 70.3478 102.602 70.6116 102.338C70.8753 102.074 71.0234 101.717 71.0234 101.344V91.5H68.2109V99.9375H65.3984V97.125L59.7734 101.344Z" fill="#2A3334"/>
<path d="M58.3672 90.0938H44.3047V92.9062H58.3672V90.0938Z" fill="#2A3334"/>
<path d="M103.367 108.375H76.6484V53.5312H73.8359V108.375H52.7422V94.3125H49.9297V109.781C49.9297 110.154 50.0778 110.512 50.3416 110.776C50.6053 111.039 50.963 111.188 51.3359 111.188H104.773C105.146 111.188 105.504 111.039 105.768 110.776C106.032 110.512 106.18 110.154 106.18 109.781V105.562H103.367V108.375Z" fill="#2A3334"/>
<path d="M38.6662 146.93H35.4442V158H33.7882V146.93H30.5842V145.4H38.6662V146.93ZM42.2552 150.548C43.0232 150.008 43.8632 149.738 44.7752 149.738C45.9512 149.738 46.5392 150.548 46.5392 152.168V158H45.0632V152.168C45.0632 151.46 44.7632 151.106 44.1632 151.106C43.6112 151.106 42.9752 151.304 42.2552 151.7V158H40.7612V144.842H42.2552V150.548ZM54.6448 154.112H50.2168C50.2528 155.948 50.7928 156.866 51.8368 156.866C52.7728 156.866 53.2948 156.338 53.4028 155.282L54.5548 155.606C54.3028 157.31 53.3728 158.162 51.7648 158.162C49.7608 158.162 48.7588 156.704 48.7588 153.788C48.7588 151.088 49.7488 149.738 51.7288 149.738C53.6728 149.738 54.6448 151.088 54.6448 153.788V154.112ZM53.2408 153.14C53.1688 151.724 52.6708 151.016 51.7468 151.016C50.7748 151.016 50.2648 151.724 50.2168 153.14H53.2408ZM65.719 145.4C68.395 145.4 69.733 146.696 69.733 149.288C69.733 151.832 68.347 153.104 65.575 153.104H63.829V158H62.191V145.4H65.719ZM63.829 146.93V151.574H65.575C67.243 151.574 68.077 150.812 68.077 149.288C68.077 147.716 67.291 146.93 65.719 146.93H63.829ZM73.3392 158H71.8452V149.9H73.3392V158ZM73.3392 147.524H71.8452V145.4H73.3392V147.524ZM81.51 154.112H77.082C77.118 155.948 77.658 156.866 78.702 156.866C79.638 156.866 80.16 156.338 80.268 155.282L81.42 155.606C81.168 157.31 80.238 158.162 78.63 158.162C76.626 158.162 75.624 156.704 75.624 153.788C75.624 151.088 76.614 149.738 78.594 149.738C80.538 149.738 81.51 151.088 81.51 153.788V154.112ZM80.106 153.14C80.034 151.724 79.536 151.016 78.612 151.016C77.64 151.016 77.13 151.724 77.082 153.14H80.106ZM88.0053 152.348C87.8253 151.496 87.3453 151.07 86.5653 151.07C85.4493 151.07 84.8913 151.976 84.8913 153.788C84.8913 155.816 85.4493 156.83 86.5653 156.83C87.4053 156.83 87.9333 156.362 88.1493 155.426L89.2833 155.732C89.0073 157.352 88.1013 158.162 86.5653 158.162C84.5133 158.162 83.4873 156.704 83.4873 153.788C83.4873 151.088 84.5133 149.738 86.5653 149.738C88.0053 149.738 88.8693 150.464 89.1573 151.916L88.0053 152.348ZM97.1838 154.112H92.7558C92.7918 155.948 93.3318 156.866 94.3758 156.866C95.3118 156.866 95.8338 156.338 95.9418 155.282L97.0938 155.606C96.8418 157.31 95.9118 158.162 94.3038 158.162C92.2998 158.162 91.2978 156.704 91.2978 153.788C91.2978 151.088 92.2878 149.738 94.2678 149.738C96.2118 149.738 97.1838 151.088 97.1838 153.788V154.112ZM95.7798 153.14C95.7078 151.724 95.2098 151.016 94.2858 151.016C93.3138 151.016 92.8038 151.724 92.7558 153.14H95.7798ZM112.254 146.93H109.032V158H107.376V146.93H104.172V145.4H112.254V146.93ZM115.843 150.548C116.611 150.008 117.451 149.738 118.363 149.738C119.539 149.738 120.127 150.548 120.127 152.168V158H118.651V152.168C118.651 151.46 118.351 151.106 117.751 151.106C117.199 151.106 116.563 151.304 115.843 151.7V158H114.349V144.842H115.843V150.548ZM127.945 156.632C127.945 156.944 128.083 157.1 128.359 157.1H128.611V158H128.053C127.657 158 127.339 157.79 127.099 157.37C126.607 157.898 125.887 158.162 124.939 158.162C123.211 158.162 122.347 157.292 122.347 155.552C122.347 153.98 123.247 153.194 125.047 153.194H126.469V151.988C126.469 151.34 126.049 151.016 125.209 151.016C124.429 151.016 123.961 151.412 123.805 152.204L122.581 151.97C122.833 150.482 123.733 149.738 125.281 149.738C127.057 149.738 127.945 150.446 127.945 151.862V156.632ZM125.191 154.166C124.243 154.166 123.769 154.61 123.769 155.498C123.769 156.47 124.261 156.956 125.245 156.956C125.773 156.956 126.181 156.764 126.469 156.38V154.166H125.191ZM131.885 149.9H133.199V150.908H131.885V155.624C131.885 156.464 132.245 156.884 132.965 156.884H133.343V158H132.389C131.057 158 130.391 157.358 130.391 156.074V150.908H129.905V149.9H130.391V148.568L131.219 147.2H131.885V149.9ZM146.417 148.766C146.333 147.95 146.087 147.392 145.679 147.092C145.283 146.78 144.755 146.624 144.095 146.624C143.411 146.624 142.913 146.804 142.601 147.164C142.289 147.524 142.133 147.974 142.133 148.514C142.133 148.91 142.217 149.234 142.385 149.486C142.553 149.726 142.775 149.93 143.051 150.098C143.327 150.266 143.639 150.41 143.987 150.53C144.335 150.65 144.689 150.776 145.049 150.908C145.421 151.028 145.781 151.178 146.129 151.358C146.477 151.526 146.789 151.748 147.065 152.024C147.341 152.288 147.563 152.63 147.731 153.05C147.899 153.458 147.983 153.962 147.983 154.562C147.983 155.762 147.677 156.662 147.065 157.262C146.453 157.862 145.475 158.162 144.131 158.162C142.799 158.162 141.809 157.862 141.161 157.262C140.513 156.662 140.159 155.798 140.099 154.67L141.647 154.526C141.695 155.222 141.923 155.762 142.331 156.146C142.739 156.53 143.339 156.722 144.131 156.722C144.899 156.722 145.457 156.524 145.805 156.128C146.153 155.732 146.327 155.21 146.327 154.562C146.327 154.01 146.183 153.584 145.895 153.284C145.619 152.984 145.265 152.738 144.833 152.546C144.401 152.354 143.939 152.186 143.447 152.042C142.955 151.886 142.493 151.676 142.061 151.412C141.629 151.148 141.269 150.794 140.981 150.35C140.705 149.906 140.567 149.3 140.567 148.532C140.567 147.536 140.861 146.738 141.449 146.138C142.037 145.538 142.943 145.238 144.167 145.238C145.391 145.238 146.279 145.514 146.831 146.066C147.383 146.606 147.701 147.374 147.785 148.37L146.417 148.766ZM153.046 149.738C155.062 149.738 156.07 151.1 156.07 153.824C156.07 156.716 155.062 158.162 153.046 158.162C150.994 158.162 149.968 156.716 149.968 153.824C149.968 151.1 150.994 149.738 153.046 149.738ZM153.046 151.106C151.942 151.106 151.39 152.012 151.39 153.824C151.39 155.804 151.942 156.794 153.046 156.794C154.114 156.794 154.648 155.804 154.648 153.824C154.648 152.012 154.114 151.106 153.046 151.106ZM159.859 158H158.365V144.86H159.859V158ZM166.428 151.34C166.044 151.148 165.624 151.052 165.168 151.052C164.148 151.052 163.638 151.964 163.638 153.788C163.638 155.792 164.19 156.794 165.294 156.794C165.798 156.794 166.176 156.608 166.428 156.236V151.34ZM167.922 158H166.95L166.788 157.244C166.32 157.856 165.726 158.162 165.006 158.162C163.098 158.162 162.144 156.704 162.144 153.788C162.144 151.088 163.08 149.738 164.952 149.738C165.54 149.738 166.032 149.834 166.428 150.026V144.86H167.922V158ZM186.587 158H185.057V148.748L181.997 158H180.359L177.317 148.766V158H175.787V145.4H177.983L181.403 155.138L184.751 145.4H186.587V158ZM194.854 154.112H190.426C190.462 155.948 191.002 156.866 192.046 156.866C192.982 156.866 193.504 156.338 193.612 155.282L194.764 155.606C194.512 157.31 193.582 158.162 191.974 158.162C189.97 158.162 188.968 156.704 188.968 153.788C188.968 151.088 189.958 149.738 191.938 149.738C193.882 149.738 194.854 151.088 194.854 153.788V154.112ZM193.45 153.14C193.378 151.724 192.88 151.016 191.956 151.016C190.984 151.016 190.474 151.724 190.426 153.14H193.45ZM210.068 153.5C210.068 156.608 208.76 158.162 206.144 158.162C203.444 158.162 202.094 156.608 202.094 153.5V149.918C202.094 146.798 203.444 145.238 206.144 145.238C208.76 145.238 210.068 146.798 210.068 149.918V153.5ZM208.43 150.602C208.43 149.33 208.268 148.376 207.944 147.74C207.62 147.092 207.02 146.768 206.144 146.768C205.22 146.768 204.584 147.092 204.236 147.74C203.9 148.376 203.732 149.33 203.732 150.602V152.816C203.732 154.088 203.9 155.048 204.236 155.696C204.584 156.332 205.22 156.65 206.144 156.65C207.668 156.65 208.43 155.6 208.43 153.5V150.602ZM218.201 158H216.725V152.168C216.725 151.46 216.425 151.106 215.825 151.106C215.249 151.106 214.613 151.304 213.917 151.7V158H212.423V149.9H213.521L213.683 150.638C214.595 150.038 215.513 149.738 216.437 149.738C217.613 149.738 218.201 150.548 218.201 152.168V158ZM38.6662 167.93H35.4442V179H33.7882V167.93H30.5842V166.4H38.6662V167.93ZM42.2552 171.548C43.0232 171.008 43.8632 170.738 44.7752 170.738C45.9512 170.738 46.5392 171.548 46.5392 173.168V179H45.0632V173.168C45.0632 172.46 44.7632 172.106 44.1632 172.106C43.6112 172.106 42.9752 172.304 42.2552 172.7V179H40.7612V165.842H42.2552V171.548ZM50.5228 179H49.0288V170.9H50.5228V179ZM50.5228 168.524H49.0288V166.4H50.5228V168.524ZM56.9836 173.294C56.9476 172.778 56.8036 172.424 56.5516 172.232C56.3116 172.028 55.9876 171.926 55.5796 171.926C54.7276 171.926 54.3016 172.262 54.3016 172.934C54.3016 173.21 54.3976 173.42 54.5896 173.564C54.7936 173.708 55.0396 173.834 55.3276 173.942C55.6156 174.05 55.9336 174.158 56.2816 174.266C56.6296 174.362 56.9476 174.506 57.2356 174.698C57.5236 174.878 57.7636 175.13 57.9556 175.454C58.1596 175.778 58.2616 176.204 58.2616 176.732C58.2616 178.352 57.3496 179.162 55.5256 179.162C53.7136 179.162 52.7716 178.358 52.6996 176.75C52.9036 176.69 53.1076 176.63 53.3116 176.57C53.5276 176.51 53.7376 176.444 53.9416 176.372C53.9896 176.888 54.1516 177.29 54.4276 177.578C54.7156 177.854 55.0816 177.992 55.5256 177.992C55.9816 177.992 56.3296 177.902 56.5696 177.722C56.8096 177.53 56.9296 177.224 56.9296 176.804C56.9296 176.492 56.8276 176.246 56.6236 176.066C56.4316 175.886 56.1856 175.73 55.8856 175.598C55.5976 175.466 55.2796 175.346 54.9316 175.238C54.5956 175.118 54.2776 174.968 53.9776 174.788C53.6896 174.596 53.4436 174.356 53.2396 174.068C53.0476 173.78 52.9516 173.402 52.9516 172.934C52.9516 172.238 53.1676 171.698 53.5996 171.314C54.0436 170.93 54.6976 170.738 55.5616 170.738C57.1576 170.738 58.0096 171.506 58.1176 173.042L56.9836 173.294ZM69.3811 166.4C72.0571 166.4 73.3951 167.696 73.3951 170.288C73.3951 172.832 72.0091 174.104 69.2371 174.104H67.4911V179H65.8531V166.4H69.3811ZM67.4911 167.93V172.574H69.2371C70.9051 172.574 71.7391 171.812 71.7391 170.288C71.7391 168.716 70.9531 167.93 69.3811 167.93H67.4911ZM77.7703 170.738C79.7863 170.738 80.7943 172.1 80.7943 174.824C80.7943 177.716 79.7863 179.162 77.7703 179.162C75.7183 179.162 74.6923 177.716 74.6923 174.824C74.6923 172.1 75.7183 170.738 77.7703 170.738ZM77.7703 172.106C76.6663 172.106 76.1143 173.012 76.1143 174.824C76.1143 176.804 76.6663 177.794 77.7703 177.794C78.8383 177.794 79.3723 176.804 79.3723 174.824C79.3723 173.012 78.8383 172.106 77.7703 172.106ZM84.5833 179H83.0893V165.86H84.5833V179ZM92.4661 177.632C92.4661 177.944 92.6041 178.1 92.8801 178.1H93.1321V179H92.5741C92.1781 179 91.8601 178.79 91.6201 178.37C91.1281 178.898 90.4081 179.162 89.4601 179.162C87.7321 179.162 86.8681 178.292 86.8681 176.552C86.8681 174.98 87.7681 174.194 89.5681 174.194H90.9901V172.988C90.9901 172.34 90.5701 172.016 89.7301 172.016C88.9501 172.016 88.4821 172.412 88.3261 173.204L87.1021 172.97C87.3541 171.482 88.2541 170.738 89.8021 170.738C91.5781 170.738 92.4661 171.446 92.4661 172.862V177.632ZM89.7121 175.166C88.7641 175.166 88.2901 175.61 88.2901 176.498C88.2901 177.47 88.7821 177.956 89.7661 177.956C90.2941 177.956 90.7021 177.764 90.9901 177.38V175.166H89.7121ZM98.7103 173.132C98.7103 172.412 98.4883 172.052 98.0443 172.052C97.4923 172.052 96.9643 172.268 96.4603 172.7V179H94.9663V170.9H96.0643L96.2263 171.638C96.9943 171.038 97.7983 170.738 98.6383 170.738C99.5983 170.738 100.078 171.536 100.078 173.132H98.7103ZM103.48 179H101.986V170.9H103.48V179ZM103.48 168.524H101.986V166.4H103.48V168.524ZM110.931 171.872L107.493 177.614H110.985V179H105.711V178.064L109.149 172.268H105.819V170.9H110.931V171.872ZM114.706 179H113.212V170.9H114.706V179ZM114.706 168.524H113.212V166.4H114.706V168.524ZM123.039 179H121.563V173.168C121.563 172.46 121.263 172.106 120.663 172.106C120.087 172.106 119.451 172.304 118.755 172.7V179H117.261V170.9H118.359L118.521 171.638C119.433 171.038 120.351 170.738 121.275 170.738C122.451 170.738 123.039 171.548 123.039 173.168V179ZM131.109 180.26C131.109 182.42 130.167 183.5 128.283 183.5C126.867 183.5 125.931 182.822 125.475 181.466L126.627 180.872C126.903 181.724 127.455 182.15 128.283 182.15C129.171 182.15 129.615 181.52 129.615 180.26V178.37C129.087 178.682 128.523 178.838 127.923 178.838C126.147 178.838 125.259 177.554 125.259 174.986C125.259 172.142 126.369 170.72 128.589 170.72C129.573 170.72 130.413 170.906 131.109 171.278V180.26ZM129.615 172.268C129.303 172.124 128.925 172.052 128.481 172.052C127.317 172.052 126.735 173.03 126.735 174.986C126.735 176.654 127.227 177.488 128.211 177.488C128.751 177.488 129.219 177.38 129.615 177.164V172.268ZM146.496 167.93H143.274V179H141.618V167.93H138.414V166.4H146.496V167.93ZM150.367 173.132C150.367 172.412 150.145 172.052 149.701 172.052C149.149 172.052 148.621 172.268 148.117 172.7V179H146.623V170.9H147.721L147.883 171.638C148.651 171.038 149.455 170.738 150.295 170.738C151.255 170.738 151.735 171.536 151.735 173.132H150.367ZM159.135 175.112H154.707C154.743 176.948 155.283 177.866 156.327 177.866C157.263 177.866 157.785 177.338 157.893 176.282L159.045 176.606C158.793 178.31 157.863 179.162 156.255 179.162C154.251 179.162 153.249 177.704 153.249 174.788C153.249 172.088 154.239 170.738 156.219 170.738C158.163 170.738 159.135 172.088 159.135 174.788V175.112ZM157.731 174.14C157.659 172.724 157.161 172.016 156.237 172.016C155.265 172.016 154.755 172.724 154.707 174.14H157.731ZM167.16 179H165.684V173.168C165.684 172.46 165.384 172.106 164.784 172.106C164.208 172.106 163.572 172.304 162.876 172.7V179H161.382V170.9H162.48L162.642 171.638C163.554 171.038 164.472 170.738 165.396 170.738C166.572 170.738 167.16 171.548 167.16 173.168V179ZM173.664 172.34C173.28 172.148 172.86 172.052 172.404 172.052C171.384 172.052 170.874 172.964 170.874 174.788C170.874 176.792 171.426 177.794 172.53 177.794C173.034 177.794 173.412 177.608 173.664 177.236V172.34ZM175.158 179H174.186L174.024 178.244C173.556 178.856 172.962 179.162 172.242 179.162C170.334 179.162 169.38 177.704 169.38 174.788C169.38 172.088 170.316 170.738 172.188 170.738C172.776 170.738 173.268 170.834 173.664 171.026V165.86H175.158V179Z" fill="#2A3334"/>
</svg>
